<svg width="17" height="18" viewBox="0 0 17 18" fill="none" xmlns="http://www.w3.org/2000/svg">
<path d="M16.7755 11.2879L15.4627 10.1629C15.5249 9.78115 15.5569 9.39139 15.5569 9.00163C15.5569 8.61187 15.5249 8.22211 15.4627 7.84039L16.7755 6.71531C16.8745 6.63034 16.9454 6.51717 16.9787 6.39084C17.012 6.26452 17.0061 6.13103 16.9619 6.00812L16.9439 5.95588C16.5825 4.94336 16.0413 4.00475 15.3465 3.18538L15.3104 3.14319C15.2261 3.04384 15.1138 2.97243 14.9882 2.93836C14.8626 2.90429 14.7297 2.90916 14.6069 2.95233L12.9775 3.53295C12.3762 3.03872 11.7048 2.64896 10.9792 2.37572L10.6646 0.668015C10.6408 0.53952 10.5787 0.421306 10.4863 0.329081C10.3939 0.236855 10.2758 0.174983 10.1475 0.151685L10.0934 0.141639C9.04916 -0.0472131 7.95084 -0.0472131 6.90663 0.141639L6.85251 0.151685C6.72423 0.174983 6.60606 0.236855 6.5137 0.329081C6.42134 0.421306 6.35916 0.53952 6.33542 0.668015L6.01875 2.38376C5.299 2.65705 4.62874 3.0466 4.03455 3.53696L2.39307 2.95233C2.27034 2.90881 2.13731 2.90377 2.01165 2.93786C1.886 2.97195 1.77366 3.04357 1.68958 3.14319L1.6535 3.18538C0.959528 4.00533 0.418442 4.94379 0.0561229 5.95588L0.0380847 6.00812C-0.0521063 6.25925 0.0220508 6.54052 0.224479 6.71531L1.55329 7.85244C1.49116 8.23015 1.4611 8.61589 1.4611 8.99962C1.4611 9.38536 1.49116 9.7711 1.55329 10.1468L0.224479 11.2839C0.125461 11.3689 0.0545925 11.4821 0.0212971 11.6084C-0.0119983 11.7347 -0.00614301 11.8682 0.0380847 11.9911L0.0561229 12.0434C0.418891 13.0559 0.956028 13.9901 1.6535 14.8139L1.68958 14.8561C1.77387 14.9554 1.88621 15.0268 2.01179 15.0609C2.13737 15.095 2.2703 15.0901 2.39307 15.0469L4.03455 14.4623C4.63181 14.9545 5.29922 15.3443 6.01875 15.6155L6.33542 17.3312C6.35916 17.4597 6.42134 17.5779 6.5137 17.6702C6.60606 17.7624 6.72423 17.8243 6.85251 17.8476L6.90663 17.8576C7.96043 18.0475 9.03957 18.0475 10.0934 17.8576L10.1475 17.8476C10.2758 17.8243 10.3939 17.7624 10.4863 17.6702C10.5787 17.5779 10.6408 17.4597 10.6646 17.3312L10.9792 15.6235C11.7045 15.351 12.3797 14.96 12.9775 14.4663L14.6069 15.0469C14.7297 15.0904 14.8627 15.0955 14.9883 15.0614C15.114 15.0273 15.2263 14.9557 15.3104 14.8561L15.3465 14.8139C16.044 13.9881 16.5811 13.0559 16.9439 12.0434L16.9619 11.9911C17.0521 11.744 16.9779 11.4627 16.7755 11.2879ZM14.0397 8.07746C14.0898 8.38083 14.1159 8.69223 14.1159 9.00364C14.1159 9.31504 14.0898 9.62645 14.0397 9.92982L13.9074 10.7355L15.4046 12.0192C15.1777 12.5434 14.8912 13.0396 14.5508 13.4979L12.6909 12.8369L12.0615 13.3553C11.5825 13.7491 11.0494 14.0585 10.4722 14.2754L9.70856 14.5627L9.3498 16.5115C8.78374 16.5758 8.21225 16.5758 7.64619 16.5115L7.28743 14.5587L6.52983 14.2674C5.95862 14.0504 5.4275 13.741 4.95249 13.3493L4.32316 12.8289L2.45119 13.4959C2.11047 13.0358 1.82587 12.5396 1.59739 12.0172L3.11059 10.7214L2.98031 9.91776C2.93221 9.61841 2.90616 9.30902 2.90616 9.00364C2.90616 8.69625 2.93021 8.38886 2.98031 8.08951L3.11059 7.28589L1.59739 5.99004C1.82387 5.46567 2.11047 4.97144 2.45119 4.51136L4.32316 5.17837L4.95249 4.65802C5.4275 4.26626 5.95862 3.95686 6.52983 3.73988L7.28944 3.45258L7.6482 1.49977C8.21139 1.43548 8.78661 1.43548 9.3518 1.49977L9.71056 3.44857L10.4742 3.73586C11.0494 3.95284 11.5845 4.26224 12.0635 4.65602L12.6929 5.17435L14.5528 4.51337C14.8935 4.97345 15.1781 5.46969 15.4066 5.99205L13.9095 7.27584L14.0397 8.07746ZM8.502 5.26677C6.55388 5.26677 4.97454 6.84992 4.97454 8.80273C4.97454 10.7555 6.55388 12.3387 8.502 12.3387C10.4501 12.3387 12.0295 10.7555 12.0295 8.80273C12.0295 6.84992 10.4501 5.26677 8.502 5.26677ZM10.0894 10.3939C9.88117 10.6032 9.63374 10.7692 9.36132 10.8823C9.0889 10.9954 8.79686 11.0533 8.502 11.0529C7.90274 11.0529 7.33954 10.8178 6.91464 10.3939C6.70585 10.1852 6.54028 9.93719 6.42746 9.66412C6.31464 9.39104 6.25679 9.0983 6.25725 8.80273C6.25725 8.20202 6.49175 7.63747 6.91464 7.21155C7.33954 6.78563 7.90274 6.55258 8.502 6.55258C9.10127 6.55258 9.66447 6.78563 10.0894 7.21155C10.2982 7.42025 10.4637 7.66827 10.5766 7.94135C10.6894 8.21442 10.7472 8.50716 10.7468 8.80273C10.7468 9.40344 10.5123 9.96799 10.0894 10.3939Z" fill="#CAD6E2"/>
</svg>
