<svg width="20" height="18" viewBox="0 0 20 18" fill="none" xmlns="http://www.w3.org/2000/svg">
<path d="M8.16331 15.9387C8.13775 15.8707 8.12895 15.8129 8.13762 15.7661C8.14624 15.7196 8.11653 15.6811 8.0484 15.6515C7.98027 15.6218 7.94627 15.5982 7.94627 15.5814C7.94627 15.5645 7.89744 15.5517 7.79956 15.5433C7.70172 15.5347 7.65289 15.5304 7.65289 15.5304H7.48714H7.34686H3.67339C3.11217 15.5304 2.63169 15.3307 2.23198 14.9308C1.83236 14.5311 1.63257 14.0508 1.63257 13.4897V4.51C1.63257 3.94879 1.83232 3.46848 2.23198 3.06882C2.63169 2.66911 3.11217 2.46918 3.67339 2.46918H7.75497C7.86554 2.46918 7.95248 2.44175 8.01641 2.38636C8.08008 2.33109 8.12252 2.24813 8.14387 2.1376C8.16514 2.02708 8.17796 1.92727 8.18225 1.83797C8.18645 1.74875 8.18439 1.63599 8.17581 1.49995C8.16737 1.36396 8.16313 1.27894 8.16313 1.24477C8.16313 1.13424 8.1227 1.03877 8.04197 0.957818C7.96115 0.877223 7.86554 0.836792 7.75502 0.836792H3.67339C2.66158 0.836792 1.79631 1.19607 1.0777 1.91458C0.359279 2.6331 0 3.49824 0 4.51013V13.4896C0 14.5014 0.359279 15.3668 1.0777 16.085C1.79631 16.8039 2.66158 17.1632 3.67339 17.1632H7.75515C7.86572 17.1632 7.95271 17.1354 8.01659 17.0804C8.08025 17.025 8.1227 16.9421 8.14405 16.8315C8.16532 16.7211 8.17814 16.6208 8.18243 16.5318C8.18663 16.4425 8.18457 16.33 8.17599 16.1939C8.16746 16.0578 8.16331 15.9728 8.16331 15.9387Z" fill="#CAD6E2"/>
<path d="M19.7577 8.426L12.819 1.48707C12.6575 1.3257 12.4661 1.24475 12.245 1.24475C12.0239 1.24475 11.8325 1.3257 11.6709 1.48707C11.5093 1.64866 11.4286 1.84018 11.4286 2.06115V5.73462H5.71435C5.49311 5.73462 5.30186 5.81558 5.14027 5.97694C4.97868 6.13853 4.89795 6.32992 4.89795 6.55102V11.449C4.89795 11.6701 4.97868 11.8615 5.14027 12.023C5.30204 12.1843 5.49325 12.2654 5.71435 12.2654H11.4286V15.9389C11.4286 16.1598 11.5094 16.3514 11.671 16.5128C11.8325 16.6744 12.0239 16.7553 12.2451 16.7553C12.4661 16.7553 12.6575 16.6744 12.819 16.5128L19.7577 9.5742C19.9193 9.41248 20.0001 9.22136 20.0001 9.00021C20.0001 8.77916 19.9193 8.58759 19.7577 8.426Z" fill="#CAD6E2"/>
</svg>
