<svg width="18" height="16" viewBox="0 0 18 16" fill="none" xmlns="http://www.w3.org/2000/svg">
<path d="M13.1939 12.994C12.0167 14.1725 10.4674 14.9064 8.80982 15.0706C7.15225 15.2348 5.48901 14.8193 4.10347 13.8947C2.71794 12.9701 1.69582 11.5938 1.21128 10.0001C0.72673 8.40649 0.809726 6.69414 1.44612 5.15481C2.08252 3.61549 3.23295 2.34444 4.7014 1.55821C6.16986 0.771986 7.86549 0.519225 9.49941 0.842994C11.1333 1.16676 12.6044 2.04703 13.6621 3.33382C14.7198 4.62062 15.2986 6.23432 15.2999 7.90001H13.4999C13.501 6.65063 13.0688 5.43953 12.2771 4.47307C11.4853 3.50662 10.3829 2.84462 9.15771 2.59987C7.93254 2.35513 6.66041 2.5428 5.55809 3.13089C4.45578 3.71897 3.59149 4.6711 3.11251 5.82502C2.63353 6.97893 2.56948 8.26323 2.9313 9.45907C3.29312 10.6549 4.0584 11.6883 5.09674 12.3831C6.13508 13.078 7.38223 13.3912 8.62568 13.2696C9.86912 13.148 11.0319 12.5989 11.9159 11.716L13.1939 12.994ZM10.7999 7.90001H17.9999L14.3999 11.5L10.7999 7.90001Z" fill="#CAD6E2"/>
</svg>
