<svg width="160" height="60" viewBox="0 0 160 60" fill="none" xmlns="http://www.w3.org/2000/svg">
<path d="M22.4 51.2C34.7712 51.2 44.8 40.813 44.8 28C44.8 15.187 34.7712 4.8 22.4 4.8C10.0288 4.8 0 15.187 0 28C0 40.813 10.0288 51.2 22.4 51.2Z" fill="white"/>
<path d="M45.3749 28.5374V10.1945C45.3749 5.22282 41.3451 1.19291 36.3744 1.19291L9.00021 5.70156C4.02832 5.70156 0 9.73148 0 14.7034V42.0771C0 47.0478 4.02832 51.0778 9.00021 51.0778H36.3744C41.3451 51.0778 45.3749 47.0477 45.3749 42.0771V31.3706C45.348 30.9083 45.3306 30.4414 45.3306 29.9658C45.3307 29.4862 45.3466 29.0102 45.3749 28.5374ZM34.7974 45.175C31.6251 47.3637 27.7933 48.4582 23.3083 48.4582C16.8491 48.4582 10.8856 46.1331 5.41523 41.481L11.2609 35.5712C14.8783 39.457 19.0525 41.3987 23.7733 41.3987C25.5843 41.3987 27.2598 41.0157 28.7974 40.2512C30.7205 39.3242 31.6773 38.0437 31.6773 36.403C31.6773 34.0029 29.9266 32.4741 26.4226 31.8174L21.5824 30.897C17.2584 30.0749 14.0572 29.0361 11.9798 27.7778C8.86342 25.8616 7.29978 23.1269 7.29978 19.5677C7.29978 15.5181 8.94474 12.2892 12.2267 9.87999C15.1274 7.69106 18.684 6.59661 22.896 6.59661C28.2582 6.59661 33.5115 8.43204 38.6571 12.0963L33.7966 18.0877C30.2824 15.1326 26.7091 13.6558 23.087 13.6558C21.3293 13.6558 19.7376 14.0413 18.3106 14.8057C16.6077 15.7362 15.7564 17.0198 15.7564 18.6638C15.7564 20.7984 17.5043 22.1918 21.0109 22.852L29.6251 24.4915C36.6323 25.8029 40.1338 29.335 40.1338 35.0808C40.1339 39.3496 38.3544 42.7123 34.7974 45.175Z" fill="#0FD186"/>
<path d="M74.3995 17.4681C73.0307 15.5089 71.3411 14.0182 69.329 12.9963C67.3181 11.9754 65.1186 11.4657 62.7286 11.4657C60.1758 11.4657 57.8218 11.9555 55.6677 12.9353C53.5136 13.9148 51.5586 15.4278 49.8032 17.4683C48.7 18.7352 47.8275 20.0056 47.184 21.2824C46.5414 22.5594 46.0699 23.9376 45.7752 25.4171C45.5706 26.4402 45.4382 27.4805 45.3749 28.5376V31.3707C45.6266 35.7272 47.0597 39.4765 49.6805 42.6158C51.2525 44.4739 53.131 45.9134 55.3163 46.9342C57.5005 47.9552 59.8909 48.465 62.4843 48.465C64.6896 48.465 66.8888 47.9339 69.0851 46.8728C71.2794 45.812 73.0099 44.3915 74.2754 42.6158H74.3992V47.3326H82.0861V12.5677H74.3992V17.4681H74.3995ZM72.8531 35.2181C72.0086 36.8 70.8091 38.047 69.2594 38.9541C67.7096 39.8646 65.9565 40.3178 63.9998 40.3178C61.1843 40.3178 58.7691 39.3482 56.7502 37.4077C54.7318 35.4683 53.7227 33.0894 53.7227 30.2717C53.7227 27.1878 54.6973 24.641 56.6437 22.6291C58.591 20.6187 61.0835 19.6123 64.1203 19.6123C65.5691 19.6123 66.9154 19.8728 68.1587 20.3939C69.4021 20.9147 70.4634 21.6339 71.3394 22.5525C72.2165 23.4718 72.8989 24.5586 73.3885 25.8154C73.8766 27.071 74.1232 28.4336 74.1232 29.9032C74.1234 31.8648 73.6984 33.6362 72.8531 35.2181Z" fill="#0089FF"/>
<path d="M45.3312 29.9656C45.3312 30.4414 45.3488 30.9083 45.3755 31.3704V28.5373C45.3472 29.0101 45.3312 29.4861 45.3312 29.9656Z" fill="#0089FF"/>
<path d="M118.714 20.7301C117.96 19.312 117.091 18.1019 116.111 17.1009C114.375 15.1205 112.492 13.6854 110.46 12.7971C108.428 11.9088 106.107 11.4659 103.492 11.4659C98.5908 11.4659 94.875 13.3439 92.3441 17.1013H92.1897V12.5677H84.5635V58.9403H92.8948V43.564H93.0168C95.5699 46.8325 99.0609 48.4646 103.492 48.4646C105.942 48.4646 108.243 47.9747 110.398 46.9949C112.553 46.0152 114.427 44.6515 116.02 42.9059C117.612 41.1593 118.827 39.1742 119.664 36.9489C120.501 34.7237 120.92 32.3958 120.92 29.9656C120.92 28.3725 120.741 26.7893 120.385 25.2176C120.027 23.6459 119.471 22.1494 118.714 20.7301ZM111.257 35.1413C110.369 36.7344 109.133 37.9955 107.55 38.924C105.968 39.8549 104.216 40.3179 102.297 40.3179C101.174 40.3179 100.02 40.084 98.8353 39.6131C97.6526 39.1435 96.5889 38.5009 95.6502 37.6838C93.4865 35.7446 92.404 33.172 92.404 29.9657C92.404 28.0865 92.8484 26.3509 93.7358 24.7581C94.6243 23.1659 95.8457 21.9093 97.3971 20.9907C98.9484 20.0725 100.685 19.6126 102.604 19.6126C104.462 19.6126 106.157 20.0867 107.687 21.0374C109.219 21.9861 110.419 23.2573 111.288 24.8505C112.155 26.4435 112.589 28.1277 112.589 29.9035C112.589 31.8025 112.145 33.5493 111.257 35.1413Z" fill="#0089FF"/>
<path d="M158.637 22.8755C157.726 20.6389 156.434 18.6629 154.758 16.9483C153.083 15.2317 151.136 13.8902 148.919 12.9206C146.701 11.951 144.325 11.4657 141.791 11.4657C139.176 11.4657 136.732 11.9398 134.465 12.8893C132.197 13.8389 130.204 15.156 128.486 16.8403C126.77 18.5248 125.426 20.4963 124.456 22.7517C123.486 25.0083 123.001 27.4328 123.001 30.0267C123.001 33.3142 123.832 36.3779 125.499 39.2155C127.164 42.0533 129.411 44.3043 132.242 45.9697C135.073 47.6331 138.132 48.4646 141.424 48.4646C143.917 48.4646 146.291 48.0005 148.551 47.072C150.809 46.1424 152.811 44.8097 154.558 43.0744C156.307 41.3389 157.65 39.3584 158.59 37.1328C159.531 34.9064 160 32.5373 160 30.0269C160 27.4942 159.545 25.1097 158.637 22.8755ZM150.293 35.2024C149.416 36.7955 148.202 38.0467 146.652 38.9539C145.104 39.8645 143.361 40.3176 141.424 40.3176C139.589 40.3176 137.9 39.8577 136.363 38.9392C134.823 38.021 133.61 36.7606 132.722 35.1565C131.835 33.5534 131.392 31.8435 131.392 30.0265C131.392 27.1467 132.352 24.7376 134.267 22.7971C135.165 21.8174 136.27 21.0416 137.585 20.4704C138.9 19.8982 140.18 19.6123 141.424 19.6123C143.279 19.6123 144.992 20.0776 146.562 21.0051C148.132 21.9357 149.365 23.2069 150.262 24.82C151.16 26.432 151.607 28.1688 151.607 30.0265C151.607 31.8848 151.17 33.6093 150.293 35.2024Z" fill="#0089FF"/>
</svg>
