<svg width="350" height="112" viewBox="0 0 350 112" fill="none" xmlns="http://www.w3.org/2000/svg">
<rect x="254.545" width="95.4545" height="34.9224" rx="4" fill="#EF4F2C"/>
<path d="M278.186 23.043C276.728 23.8372 275.103 24.2344 273.313 24.2344C271.243 24.2344 269.566 23.5898 268.284 22.3008C267.001 21.0117 266.36 19.306 266.36 17.1836C266.36 15.0156 267.06 13.2383 268.459 11.8516C269.866 10.4583 271.65 9.76172 273.811 9.76172C275.367 9.76172 276.676 9.98958 277.737 10.4453V12.8379C276.663 12.1217 275.383 11.7637 273.899 11.7637C272.408 11.7637 271.184 12.2552 270.227 13.2383C269.277 14.2214 268.801 15.4941 268.801 17.0566C268.801 18.6647 269.211 19.931 270.032 20.8555C270.852 21.7734 271.965 22.2324 273.372 22.2324C274.335 22.2324 275.168 22.0469 275.872 21.6758V18.3457H272.922V16.3926H278.186V23.043ZM285.383 24.2344C283.84 24.2344 282.607 23.7689 281.682 22.8379C280.764 21.9004 280.305 20.6602 280.305 19.1172C280.305 17.4375 280.784 16.1257 281.741 15.1816C282.704 14.2376 284 13.7656 285.627 13.7656C287.19 13.7656 288.407 14.2246 289.28 15.1426C290.152 16.0605 290.588 17.3333 290.588 18.9609C290.588 20.556 290.116 21.8353 289.172 22.7988C288.235 23.7559 286.972 24.2344 285.383 24.2344ZM285.491 15.5723C284.605 15.5723 283.905 15.8815 283.391 16.5C282.877 17.1185 282.62 17.9714 282.62 19.0586C282.62 20.1068 282.88 20.9336 283.401 21.5391C283.922 22.138 284.618 22.4375 285.491 22.4375C286.383 22.4375 287.066 22.1413 287.542 21.5488C288.023 20.9564 288.264 20.1133 288.264 19.0195C288.264 17.9193 288.023 17.0697 287.542 16.4707C287.066 15.8717 286.383 15.5723 285.491 15.5723ZM305.569 23.541C304.768 24.0033 303.821 24.2344 302.727 24.2344C301.243 24.2344 300.045 23.7721 299.133 22.8477C298.222 21.9167 297.766 20.7122 297.766 19.2344C297.766 17.5872 298.254 16.2656 299.231 15.2695C300.214 14.2669 301.526 13.7656 303.167 13.7656C304.078 13.7656 304.882 13.9251 305.579 14.2441V16.3535C304.882 15.8327 304.14 15.5723 303.352 15.5723C302.395 15.5723 301.611 15.8978 300.999 16.5488C300.387 17.1934 300.081 18.0397 300.081 19.0879C300.081 20.123 300.367 20.9401 300.94 21.5391C301.519 22.138 302.294 22.4375 303.264 22.4375C304.078 22.4375 304.846 22.1478 305.569 21.5684V23.541ZM316.711 24H314.446V18.5312C314.446 16.5521 313.785 15.5625 312.463 15.5625C311.799 15.5625 311.239 15.849 310.784 16.4219C310.328 16.9948 310.1 17.7272 310.1 18.6191V24H307.825V9.19531H310.1V15.6602H310.139C310.894 14.3971 311.975 13.7656 313.381 13.7656C315.601 13.7656 316.711 15.123 316.711 17.8379V24ZM327.141 24H324.944V22.4375H324.905C324.215 23.6354 323.202 24.2344 321.868 24.2344C320.885 24.2344 320.113 23.9674 319.553 23.4336C319 22.8997 318.723 22.1934 318.723 21.3145C318.723 19.4264 319.81 18.3262 321.985 18.0137L324.954 17.5938C324.954 16.168 324.277 15.4551 322.922 15.4551C321.731 15.4551 320.657 15.8652 319.7 16.6855V14.7031C320.754 14.0781 321.972 13.7656 323.352 13.7656C325.878 13.7656 327.141 15.0091 327.141 17.4961V24ZM324.954 19.0879L322.854 19.3809C322.203 19.4655 321.711 19.625 321.379 19.8594C321.054 20.0872 320.891 20.4909 320.891 21.0703C320.891 21.4935 321.041 21.8418 321.34 22.1152C321.646 22.3822 322.053 22.5156 322.561 22.5156C323.251 22.5156 323.821 22.2747 324.27 21.793C324.726 21.3047 324.954 20.6927 324.954 19.957V19.0879ZM335.188 23.8926C334.745 24.1139 334.163 24.2246 333.44 24.2246C331.5 24.2246 330.53 23.2936 330.53 21.4316V15.7773H328.86V14H330.53V11.6855L332.795 11.041V14H335.188V15.7773H332.795V20.7773C332.795 21.3698 332.903 21.793 333.118 22.0469C333.333 22.3008 333.691 22.4277 334.192 22.4277C334.576 22.4277 334.908 22.3171 335.188 22.0957V23.8926Z" fill="white"/>
<g clip-path="url(#clip0)">
<path d="M35.6364 98.9546C55.3178 98.9546 71.2727 82.4298 71.2727 62.0455C71.2727 41.6611 55.3178 25.1364 35.6364 25.1364C15.9549 25.1364 0 41.6611 0 62.0455C0 82.4298 15.9549 98.9546 35.6364 98.9546Z" fill="white"/>
<path d="M72.1873 62.9004V33.7185C72.1873 25.809 65.7763 19.3978 57.8684 19.3978L14.3185 26.5706C6.40869 26.5706 0 32.9819 0 40.8917V84.4408C0 92.3488 6.40869 98.76 14.3185 98.76H57.8684C65.7763 98.76 72.1873 92.3486 72.1873 84.4408V67.4077C72.1445 66.6723 72.1168 65.9295 72.1168 65.1728C72.1171 64.4099 72.1423 63.6526 72.1873 62.9004ZM55.3596 89.3694C50.3127 92.8513 44.2166 94.5926 37.0814 94.5926C26.8054 94.5926 17.3179 90.8936 8.61514 83.4924L17.9151 74.0905C23.67 80.2724 30.3108 83.3616 37.8211 83.3616C40.7023 83.3616 43.3679 82.7522 45.8141 81.536C48.8735 80.0611 50.3957 78.024 50.3957 75.4139C50.3957 71.5955 47.6104 69.1633 42.0359 68.1186L34.3356 66.6542C27.4565 65.3464 22.3637 63.6939 19.0588 61.6919C14.1009 58.6434 11.6133 54.2927 11.6133 48.6304C11.6133 42.1879 14.2303 37.051 19.4516 33.2182C24.0663 29.7358 29.7245 27.9946 36.4255 27.9946C44.9563 27.9946 53.3138 30.9146 61.5 36.7442L53.7674 46.2758C48.1765 41.5745 42.4918 39.2251 36.7294 39.2251C33.9329 39.2251 31.4007 39.8384 29.1304 41.0546C26.4213 42.5348 25.067 44.577 25.067 47.1924C25.067 50.5883 27.8478 52.8052 33.4264 53.8554L47.1309 56.4638C58.2787 58.55 63.8492 64.1694 63.8492 73.3103C63.8494 80.1016 61.0184 85.4514 55.3596 89.3694Z" fill="#0FD186"/>
<path d="M118.363 45.2902C116.185 42.1732 113.497 39.8017 110.296 38.1759C107.097 36.5518 103.598 35.7408 99.7956 35.7408C95.7344 35.7408 91.9892 36.5202 88.5623 38.0788C85.1353 39.6372 82.0251 42.0442 79.2324 45.2905C77.4773 47.306 76.0893 49.3271 75.0655 51.3583C74.0433 53.3899 73.2931 55.5825 72.8243 57.9363C72.4987 59.5639 72.2882 61.2189 72.1874 62.9007V67.4079C72.5878 74.3387 74.8677 80.3035 79.0372 85.2979C81.5381 88.2539 84.5267 90.5441 88.0033 92.1681C91.4781 93.7923 95.281 94.6033 99.4069 94.6033C102.915 94.6033 106.414 93.7585 109.908 92.0703C113.399 90.3827 116.152 88.1228 118.165 85.2979H118.362V92.8019H130.592V37.494H118.362V45.2902H118.363ZM115.903 73.5287C114.559 76.0454 112.651 78.0294 110.185 79.4724C107.72 80.921 104.931 81.6419 101.818 81.6419C97.3388 81.6419 93.4964 80.0993 90.2845 77.0122C87.0735 73.9268 85.468 70.1423 85.468 65.6595C85.468 60.7533 87.0185 56.7015 90.115 53.5008C93.2131 50.3025 97.1784 48.7014 102.01 48.7014C104.315 48.7014 106.456 49.1158 108.434 49.9448C110.412 50.7734 112.101 51.9176 113.495 53.3789C114.89 54.8415 115.976 56.5704 116.754 58.5699C117.531 60.5675 117.923 62.7352 117.923 65.0732C117.924 68.194 117.248 71.012 115.903 73.5287Z" fill="#0089FF"/>
<path d="M72.1178 65.1725C72.1178 65.9295 72.1458 66.6723 72.1883 67.4074V62.9002C72.1433 63.6524 72.1178 64.4096 72.1178 65.1725Z" fill="#0089FF"/>
<path d="M188.863 50.4796C187.664 48.2236 186.281 46.2984 184.722 44.706C181.961 41.5552 178.965 39.2722 175.732 37.859C172.499 36.4458 168.806 35.7411 164.647 35.7411C156.849 35.7411 150.938 38.7288 146.911 44.7065H146.665V37.494H134.533V111.269H147.787V86.8063H147.981C152.043 92.0062 157.597 94.6028 164.647 94.6028C168.545 94.6028 172.205 93.8233 175.633 92.2645C179.061 90.7059 182.042 88.5364 184.577 85.7593C187.11 82.9807 189.042 79.8226 190.375 76.2824C191.707 72.7421 192.373 69.0388 192.373 65.1725C192.373 62.638 192.087 60.1192 191.521 57.6188C190.952 55.1184 190.067 52.7377 188.863 50.4796ZM177 73.4065C175.587 75.941 173.621 77.9473 171.102 79.4245C168.585 80.9054 165.799 81.6421 162.745 81.6421C160.959 81.6421 159.123 81.2699 157.238 80.5208C155.356 79.7737 153.664 78.7515 152.171 77.4515C148.729 74.3664 147.006 70.2736 147.006 65.1727C147.006 62.1831 147.713 59.4218 149.125 56.8878C150.539 54.3548 152.482 52.3556 154.95 50.8942C157.418 49.4334 160.181 48.7018 163.233 48.7018C166.19 48.7018 168.886 49.4561 171.32 50.9686C173.758 52.4778 175.666 54.5001 177.049 57.0349C178.428 59.5692 179.118 62.2485 179.118 65.0737C179.119 68.0949 178.412 70.8738 177 73.4065Z" fill="#0089FF"/>
<path d="M252.376 53.8928C250.927 50.3345 248.872 47.1909 246.206 44.4632C243.541 41.7323 240.443 39.598 236.916 38.0554C233.387 36.5129 229.608 35.7408 225.576 35.7408C221.416 35.7408 217.529 36.4952 213.921 38.0058C210.314 39.5164 207.143 41.6118 204.41 44.2914C201.68 46.9712 199.541 50.1077 197.998 53.6958C196.455 57.2859 195.683 61.1431 195.683 65.2697C195.683 70.4999 197.005 75.3739 199.658 79.8883C202.306 84.4029 205.881 87.9841 210.385 90.6337C214.889 93.2799 219.756 94.6028 224.992 94.6028C228.959 94.6028 232.736 93.8644 236.331 92.3872C239.923 90.9083 243.109 88.7882 245.888 86.0274C248.669 83.2664 250.807 80.1156 252.303 76.5749C253.799 73.0329 254.545 69.2638 254.545 65.27C254.545 61.2408 253.822 57.4473 252.376 53.8928ZM239.102 73.5038C237.707 76.0383 235.776 78.0288 233.31 79.4721C230.846 80.9207 228.074 81.6416 224.992 81.6416C222.073 81.6416 219.386 80.91 216.941 79.4487C214.491 77.9879 212.561 75.9828 211.149 73.4307C209.738 70.8804 209.033 68.1601 209.033 65.2695C209.033 60.6879 210.559 56.8552 213.606 53.7681C215.035 52.2095 216.794 50.9752 218.885 50.0665C220.977 49.1563 223.014 48.7014 224.992 48.7014C227.943 48.7014 230.668 49.4416 233.167 50.9172C235.665 52.3976 237.626 54.42 239.053 56.9863C240.481 59.5509 241.192 62.314 241.192 65.2695C241.192 68.2258 240.497 70.9693 239.102 73.5038Z" fill="#0089FF"/>
</g>
<defs>
<clipPath id="clip0">
<rect width="254.545" height="94.1818" fill="white" transform="translate(0 17.5)"/>
</clipPath>
</defs>
</svg>
