<svg width="27" height="30" viewBox="0 0 27 30" fill="none" xmlns="http://www.w3.org/2000/svg">
<path d="M13.5 29C20.9558 29 27 22.9558 27 15.5C27 8.04416 20.9558 2 13.5 2C6.04416 2 0 8.04416 0 15.5C0 22.9558 6.04416 29 13.5 29Z" fill="white"/>
<path d="M27 16.2712V5.35633C27 2.39797 24.6021 0 21.6443 0L5.35551 2.68284C2.39702 2.68284 0 5.08081 0 8.03929V24.3279C0 27.2856 2.39702 29.6836 5.35551 29.6836H21.6443C24.6021 29.6836 27 27.2856 27 24.3279V17.957C26.984 17.6819 26.9736 17.4041 26.9736 17.1211C26.9737 16.8357 26.9831 16.5525 27 16.2712ZM20.706 26.1712C18.8183 27.4736 16.5382 28.1249 13.8695 28.1249C10.0259 28.1249 6.47737 26.7413 3.2223 23.9731L6.70072 20.4566C8.85322 22.7687 11.337 23.9242 14.1461 23.9242C15.2238 23.9242 16.2208 23.6963 17.1357 23.2414C18.28 22.6897 18.8493 21.9278 18.8493 20.9515C18.8493 19.5233 17.8076 18.6136 15.7226 18.2229L12.8425 17.6752C10.2695 17.186 8.36463 16.5679 7.1285 15.8191C5.27412 14.6789 4.34368 13.0516 4.34368 10.9338C4.34368 8.52409 5.3225 6.60276 7.27543 5.16919C9.00145 3.86668 11.1178 3.21544 13.6241 3.21544C16.8149 3.21544 19.9408 4.30759 23.0026 6.48801L20.1104 10.0531C18.0193 8.2947 15.8931 7.41596 13.7378 7.41596C12.6918 7.41596 11.7447 7.64535 10.8956 8.10021C9.88228 8.65387 9.37575 9.4177 9.37575 10.3959C9.37575 11.6661 10.4158 12.4953 12.5024 12.8881L17.6282 13.8637C21.7978 14.644 23.8813 16.7458 23.8813 20.1647C23.8814 22.7049 22.8225 24.7058 20.706 26.1712Z" fill="#0FD186"/>
</svg>
